<?xml version="1.0" encoding="UTF-8"?>
<svg width="179px" height="179px" viewBox="0 0 179 179" version="1.1" xmlns="http://www.w3.org/2000/svg" xmlns:xlink="http://www.w3.org/1999/xlink">
    <!-- Generator: Sketch 47.1 (45422) - http://www.bohemiancoding.com/sketch -->
    <title>ionic</title>
    <desc>Created with Sketch.</desc>
    <defs></defs>
    <g id="Symbols" stroke="none" stroke-width="1" fill="none" fill-rule="evenodd">
        <circle id="Oval-2" fill="#FFFFFF" cx="89.5" cy="89.5" r="89.5"></circle>
        <g id="ionic" fill-rule="nonzero" fill="#4E8EF7">
            <g>
                <circle id="Oval" cx="89.3731138" cy="89.2707138" r="36.4483764"></circle>
                <path d="M163.754667,27.4241254 C163.754667,20.5010824 158.140737,14.8911686 151.219702,14.8911686 C148.078431,14.8911686 145.217255,16.0537098 143.016659,17.9631686 C128.071278,6.69113726 109.489694,0 89.3721098,0 C40.1478274,0 0.101396078,40.0474352 0.101396078,89.2717176 C0.101396078,138.494996 40.1488314,178.543435 89.3731138,178.543435 C138.597396,178.543435 178.643827,138.494996 178.643827,89.2717176 C178.643827,69.1541334 171.95269,50.572549 160.681663,35.6261648 C162.591122,33.4275764 163.754667,30.5643922 163.754667,27.4241254 L163.754667,27.4241254 L163.754667,27.4241254 Z M89.3721098,175.539702 C41.804298,175.539702 3.10312156,136.838525 3.10312156,89.2707138 C3.10312156,41.702902 41.804298,3.0017255 89.3721098,3.0017255 C108.713663,3.0017255 126.586478,9.40072156 140.990745,20.1918746 C139.54309,22.2358588 138.684737,24.7275922 138.684737,27.4231216 C138.684737,34.3451608 144.296659,39.9550746 151.217694,39.9550746 C153.914227,39.9550746 156.402949,39.0967216 158.447937,37.6490666 C169.23909,52.0533334 175.638086,69.926149 175.638086,89.2697098 C175.640094,136.838525 136.940925,175.539702 89.3721098,175.539702 L89.3721098,175.539702 L89.3721098,175.539702 Z" id="Shape"></path>
            </g>
        </g>
    </g>
</svg>